# xmcd CD database file
#
# Track frame offsets:
#	183
#	11548
#	22425
#	32505
#	44835
#	57778
#	70088
#	81958
#	91008
#	101493
#	112973
#	123155
#	134410
#	144483
#	154938
#	164893
#	176073
#	189250
#	199260
#	212838
#	221558
#	231263
#	242203
#	254273
#	266513
#	277785
#	286748
#
# Disc length: 3974 seconds
#
# Revision: 2
# Processed by: cddbd v1.5.2PL0 Copyright (c) Steve Scherf et al.
# Submitted via: CDex 1.70beta2
#
DISCID=8c0f841b
DTITLE=Paul Anka - Sings His Big 15 vol.3 and Paul Anka
DYEAR=1900
DGENRE=Pop
TTITLE0=Kissin' On The Phone
TTITLE1=I'd Never Find Another You
TTITLE2=Happy Tears
TTITLE3=The Bells At My Wedding
TTITLE4=Cry
TTITLE5=Far From The Lights Of Town
TTITLE6=All Of Me
TTITLE7=I'm Comming Home
TTITLE8=Loveland
TTITLE9=It Only Lasts For A Little While
TTITLE10=Uh-Huh
TTITLE11=I Remember
TTITLE12=Send For Me
TTITLE13=The Fool's Hall Of Fame
TTITLE14=Cinderella
TTITLE15=Down By The Riverside
TTITLE16=You Belong To Me
TTITLE17=Your Cheatin' Heart
TTITLE18=Waiting For You
TTITLE19=Walking My Baby Back Home
TTITLE20=Sing, Sing
TTITLE21=Diana
TTITLE22=Red Sails In The Sunset
TTITLE23=Jambalaya
TTITLE24=I've Heard That Song Before
TTITLE25=Pity Pity
TTITLE26=Side By Side
EXTD=
EXTT0=
EXTT1=
EXTT2=
EXTT3=
EXTT4=
EXTT5=
EXTT6=
EXTT7=
EXTT8=
EXTT9=
EXTT10=
EXTT11=
EXTT12=
EXTT13=
EXTT14=
EXTT15=
EXTT16=
EXTT17=
EXTT18=
EXTT19=
EXTT20=
EXTT21=
EXTT22=
EXTT23=
EXTT24=
EXTT25=
EXTT26=
PLAYORDER=
